<svg width="21" height="10" viewBox="0 0 21 10" fill="none" xmlns="http://www.w3.org/2000/svg">
<path d="M19.4967 3.98069H3.51581L6.16311 1.3529C6.45849 1.05966 6.45963 0.583091 6.16563 0.288451C5.87164 -0.00622679 5.39383 -0.00731794 5.09844 0.285892L1.15549 4.19987C1.15523 4.2001 1.15504 4.20036 1.15481 4.20059C0.860176 4.49383 0.859233 4.97194 1.15474 5.26617C1.155 5.26639 1.15519 5.26666 1.15541 5.26688L5.09836 9.18086C5.39371 9.47404 5.87153 9.47302 6.16556 9.1783C6.45955 8.88367 6.45842 8.4071 6.16303 8.11385L3.51581 5.48607H19.4967C19.9135 5.48607 20.2513 5.14909 20.2513 4.73338C20.2513 4.31767 19.9135 3.98069 19.4967 3.98069Z" fill="#202020"/>
</svg>
