<svg width="105" height="105" viewBox="0 0 105 105" fill="none" xmlns="http://www.w3.org/2000/svg">
<path d="M115.23 19.7702C102.481 7.02129 85.5296 0 67.5 0C49.4704 0 32.5192 7.02129 19.7702 19.7702C7.02129 32.5192 0 49.4704 0 67.5C0 85.5296 7.02129 102.481 19.7702 115.23C32.5192 127.979 49.4704 135 67.5 135C79.8431 135 91.9205 131.636 102.426 125.272C104.918 123.763 105.714 120.521 104.205 118.03C102.696 115.539 99.4527 114.743 96.9622 116.251C88.1045 121.617 77.9161 124.453 67.5 124.453C37.874 124.453 13.4627 101.715 10.793 72.7734H44.3607C46.7657 83.3286 56.227 91.2305 67.5 91.2305C78.773 91.2305 88.2343 83.3286 90.6393 72.7734H124.206C123.328 82.1328 120.12 91.147 114.796 99.1108C113.177 101.531 113.828 104.806 116.249 106.426C118.67 108.044 121.945 107.393 123.564 104.972C131.045 93.7817 135 80.8237 135 67.5C135 49.4704 127.979 32.5192 115.23 19.7702ZM67.5 10.5469C97.126 10.5469 121.537 33.2855 124.207 62.2266H90.6393C88.2343 51.6714 78.773 43.7695 67.5 43.7695C56.227 43.7695 46.7657 51.6714 44.3607 62.2266H10.793C13.4627 33.2855 37.874 10.5469 67.5 10.5469ZM67.5 80.6836C60.2305 80.6836 54.3164 74.7695 54.3164 67.5C54.3164 60.2305 60.2305 54.3164 67.5 54.3164C74.7695 54.3164 80.6836 60.2305 80.6836 67.5C80.6836 74.7695 74.7695 80.6836 67.5 80.6836Z" fill="white" fill-opacity="0.2"/>
</svg>
